<?xml version="1.0" encoding="utf-8"?>
<!-- Generator: Adobe Illustrator 24.1.2, SVG Export Plug-In . SVG Version: 6.00 Build 0)  -->
<svg version="1.1" id="Layer_1" xmlns="http://www.w3.org/2000/svg" xmlns:xlink="http://www.w3.org/1999/xlink" x="0px" y="0px"
	 viewBox="0 0 1000 1000" style="enable-background:new 0 0 1000 1000;" xml:space="preserve">
<style type="text/css">
	.st0{fill:#010202;}
</style>
<g>
	<g>
		<g>
			<path class="st0" d="M-593.73,517.38c6.26,0.51,9.4,1.04,9.43,1.61c2.48,0.76,5.16,2.44,8.03,5.03c1.97,2.09,3.37,4.64,4.18,7.65
				c0.34,1.58,0.51,2.45,0.51,2.62c0.23,4.65-1.44,9.36-4.99,14.12c-3.61,3.75-8.4,6.75-14.37,9c-3.83,0.96-6.85,1.44-9.05,1.44
				h-1.31c-0.82,0-1.54-0.35-2.16-1.06l-0.04-0.68c0.85-1.13,1.87-1.69,3.09-1.69c5.64-1.58,10.61-4.44,14.92-8.58
				c2.03-3.27,3.02-5.61,2.96-7.02c0.08-0.31,0.1-0.79,0.04-1.44v-0.8c-0.08-1.41-1-3.07-2.75-4.99c-1.89-1.78-3.79-2.83-5.71-3.17
				c-2.34-0.7-4.78-1.06-7.31-1.06h-0.25v0.13l0.42,0.51l0.08,1.73c0.08,2.14-0.56,5.13-1.94,8.96c-1.3,6.12-4.1,15.01-8.41,26.67
				c-2.25,6.4-4.59,12.78-7.02,19.15c0.03,0.7-0.89,2.59-2.75,5.66l-2.45,1.86h-1.06c-1.1,0-1.94-1.24-2.54-3.72l-0.25-5.41
				c2.37-14.12,4.8-24.05,7.31-29.8c2.59-7.33,4.95-12.57,7.06-15.72c2.37-4.2,4.24-7.33,5.62-9.38h-0.13
				c-2.06,0.7-3.97,1.2-5.75,1.48c-1.66,0-2.55-1.01-2.66-3.04c-0.2-4.23,4.54-7.4,14.2-9.51L-593.73,517.38z"/>
		</g>
		<g>
			<path class="st0" d="M-564.09,545.91h0.25c0.99,0,1.61,1.04,1.86,3.13c0.17,0.93,0.25,1.63,0.25,2.11
				c0,4.28-2.42,10.89-7.27,19.82l-2.24,5.37c0.08,0.56,0.13,1.02,0.13,1.35v0.13c0,1.01-0.83,1.52-2.49,1.52
				c-2.45,0-4-2.63-4.65-7.9c0-3.92,2.04-9.05,6.13-15.39c4.28-5.44,6.58-8.69,6.89-9.76
				C-564.93,546.04-564.55,545.91-564.09,545.91z M-553.23,523h1.27c0.51,0.28,0.76,0.66,0.76,1.14v0.13
				c-0.08,1.16-3.02,5.54-8.79,13.15c-1.32,1.66-2.41,2.49-3.25,2.49c0,0.17-0.62,0.25-1.86,0.25c-1.83-0.31-2.75-1.1-2.75-2.37
				v-2.03c0-1.58,1.51-4.09,4.52-7.52c2.71-1.86,5.45-3.35,8.24-4.48C-554.5,523.71-553.88,523.45-553.23,523z"/>
		</g>
		<g>
			<path class="st0" d="M-529.52,536.23c5.64,0.59,8.45,2.56,8.45,5.92c0,2.17-5.24,8.37-15.72,18.6c-1.77,1.38-4.2,3.69-7.27,6.93
				h0.34c2.28,0,7.13,0.62,14.54,1.86c1.69,0.11,2.93,0.17,3.72,0.17c3.47-0.45,5.61-0.68,6.43-0.68c0.59,0,1.1,0.34,1.52,1.02v0.17
				c0,2.62-3.78,5.1-11.33,7.44c-3.8,0.56-7.07,0.85-9.81,0.85c-7.98-0.23-13.16-0.34-15.56-0.34h-0.51c-2.45,0-5.49,0.39-9.13,1.18
				c-1.07,0-1.92-0.73-2.54-2.2c0-4.73,3.95-9.86,11.84-15.39l17.75-14.54h-0.17c-9.47,0.9-15.05,1.35-16.74,1.35
				c-5.52,0-8.29-2.2-8.29-6.59v-0.68c0-1.44,1.3-2.34,3.89-2.71c1.66,0.37,2.51,0.59,2.54,0.68c0.23-0.11,0.39-0.17,0.51-0.17
				c1.07,0,8.9-0.96,23.5-2.87H-529.52z"/>
		</g>
		<g>
			<path class="st0" d="M-484.2,536.23c5.64,0.59,8.45,2.56,8.45,5.92c0,2.17-5.24,8.37-15.72,18.6c-1.78,1.38-4.2,3.69-7.27,6.93
				h0.34c2.28,0,7.13,0.62,14.54,1.86c1.69,0.11,2.93,0.17,3.72,0.17c3.47-0.45,5.61-0.68,6.43-0.68c0.59,0,1.1,0.34,1.52,1.02v0.17
				c0,2.62-3.78,5.1-11.33,7.44c-3.8,0.56-7.07,0.85-9.81,0.85c-7.98-0.23-13.16-0.34-15.56-0.34h-0.51c-2.45,0-5.49,0.39-9.13,1.18
				c-1.07,0-1.92-0.73-2.54-2.2c0-4.73,3.94-9.86,11.84-15.39l17.75-14.54h-0.17c-9.47,0.9-15.05,1.35-16.74,1.35
				c-5.52,0-8.28-2.2-8.28-6.59v-0.68c0-1.44,1.3-2.34,3.89-2.71c1.66,0.37,2.51,0.59,2.54,0.68c0.23-0.11,0.39-0.17,0.51-0.17
				c1.07,0,8.9-0.96,23.5-2.87H-484.2z"/>
		</g>
		<g>
			<path class="st0" d="M-427.48,539.4c1.69,1.04,2.48,2.26,2.37,3.64l-0.04,0.34c-0.08,0.76-1.58,4.85-4.48,12.26l-0.17,1.52
				c0.11,2.11,1.52,3.34,4.23,3.68c4,0.82,6.02,1.63,6.04,2.45c0.11,0.03,0.15,0.21,0.13,0.55c-0.28,2.65-4.64,4.24-13.06,4.78
				c-4.96-1.41-7.75-2.93-8.37-4.57c-10.12,5.55-17.57,8.07-22.36,7.57l-1.69-0.17c-3.75-0.37-6.06-2.63-6.93-6.81
				c-0.14-0.99-0.17-1.83-0.08-2.54c0.68-6.93,7.17-13.53,19.49-19.78c6.62-2.62,12.89-3.64,18.81-3.04c2,0.59,2.99,0.92,2.96,0.97
				C-429.3,539.6-428.24,539.32-427.48,539.4z M-457.74,559.78l1.18,0.13c3.66,0.37,8.5-0.96,14.5-3.97l0.04-0.51
				c0.28-0.96,1.56-3.61,3.85-7.95c-3.89,0.23-7.81,1.48-11.75,3.76c-2.14,1.01-3.82,2.42-5.03,4.23
				C-455.74,555.89-456.67,557.33-457.74,559.78z"/>
		</g>
	</g>
	<g>
		<g>
			<path class="st0" d="M-701,423.44c7.59,2.08,15.21,4.02,22.87,5.83c0.05,11.69,0.1,23.37,0.15,35.06
				c0.15,0.02,0.23,0.03,0.38,0.05c5.71-10.43,11.39-20.87,17.43-31.12c8.73,1.82,17.5,3.46,26.29,4.93
				c-7.07,8.28-13.92,16.76-20.6,25.36c7.05,15.54,14.38,30.92,22.01,46.18c-8.64,0-17.27,0-25.91,0
				c-4.27-11.04-8.42-22.12-12.47-33.25c-2.81,3.76-4.22,5.67-7.04,9.58c0.03,7.89,0.07,15.78,0.1,23.67c-7.74,0-15.47,0-23.21,0
				C-701,480.97-701,452.2-701,423.44z"/>
			<path class="st0" d="M-626.18,509.73c-0.21-23.47-0.41-46.93-0.62-70.4c8.82,1.38,17.67,2.59,26.55,3.62
				c6.28,13.82,12.25,27.88,17.8,42.02c0.23,0.01,0.35,0.01,0.58,0.02c-1.52-9.81-2.29-19.76-2.41-29.68
				c-0.03-4.28-0.05-6.42-0.08-10.7c7.46,0.65,14.91,1.21,22.38,1.69c0.11,21.14,0.23,42.29,0.34,63.43c-8.91,0-17.83,0-26.74,0
				c-6.02-14.4-11.81-28.91-17.38-43.49c-0.26-0.02-0.39-0.03-0.65-0.05c1.24,10.61,1.87,21.36,1.94,32.04
				c0.04,4.6,0.06,6.9,0.1,11.5C-611.63,509.73-618.9,509.73-626.18,509.73z"/>
			<path class="st0" d="M-497.07,482.03c-8.59,0.14-17.18,0.21-25.77,0.2c0,6.79,0,10.18,0,16.97c10.05-0.01,20.09-0.04,30.14-0.11
				c-1.17,4.26-1.75,6.39-2.92,10.64c-17.06,0-34.13,0-51.19,0c-0.07-20.91-0.15-41.81-0.22-62.72c17.18,0.53,34.28,0.51,51.46-0.05
				c-0.02,4.27-0.02,6.4-0.04,10.67c-9.07,0.29-18.15,0.44-27.23,0.43c0,5.46,0,8.19,0,13.64c8.6,0.01,17.21-0.09,25.81-0.28
				C-497.05,475.67-497.06,477.79-497.07,482.03z"/>
			<path class="st0" d="M-459.21,494.22c-1.28,6.23-1.91,9.34-3.18,15.52c-8.14,0-16.28,0-24.42,0
				c6.07-21.43,12.1-42.88,18.04-64.35c11.99-1.01,23.93-2.27,35.87-3.79c6,22.66,11.8,45.37,17.42,68.13c-8.3,0-16.61,0-24.91,0
				c-1.32-6.4-1.97-9.58-3.29-15.91C-449.89,494-452.99,494.08-459.21,494.22z M-445.62,482.58c-1.83-9.1-3.54-18.23-5.2-27.37
				c-0.38,0.03-0.57,0.05-0.95,0.08c-1.27,9.33-3.33,18.57-5.27,27.78C-452.46,482.89-450.18,482.8-445.62,482.58z"/>
			<path class="st0" d="M-406.33,437.54c9.8-1.76,19.55-3.66,29.28-5.73c16.87-3.73,34.17-3.85,34.05,17.59c0,10.81,0,21.63,0,32.44
				c0.18,20.11-13.65,28.45-32.87,27.89c-10.36,0-20.71,0-31.07,0C-406.74,485.67-406.54,461.61-406.33,437.54z M-382.89,497.84
				c1.87-0.06,2.8-0.09,4.66-0.15c9.37-0.31,10.94-4.32,10.97-10.58c0.05-11.97,0.11-23.94,0.16-35.92c0.03-5.92-1.99-8.69-11-7.04
				c-1.78,0.33-2.67,0.49-4.45,0.8C-382.66,462.58-382.78,480.21-382.89,497.84z"/>
		</g>
	</g>
	<g>
		<path class="st0" d="M-684.61,338.72c-1.57,0-3.06-0.93-3.7-2.47c-0.84-2.04,0.12-4.38,2.16-5.22
			c50.97-21.1,104.43-31.8,158.9-31.8c54.08,0,107.19,10.55,157.85,31.36c2.04,0.84,3.02,3.17,2.18,5.22
			c-0.84,2.04-3.17,3.02-5.22,2.18c-49.69-20.41-101.78-30.76-154.81-30.76c-53.42,0-105.85,10.49-155.84,31.19
			C-683.58,338.62-684.1,338.72-684.61,338.72z"/>
	</g>
	<g>
		<path class="st0" d="M-527.25,700.77l-42.02-101.04l7.38-3.07l34.61,83.21l34.33-83.2l7.39,3.05L-527.25,700.77z M-642.43,423.8
			l-28.4-68.28l3.7-1.53c89.83-37.19,188.84-37.33,278.77-0.39l3.7,1.52l-28.33,68.66l-7.39-3.05l25.27-61.24
			c-85.74-34.13-179.61-34-265.26,0.37l25.31,60.86L-642.43,423.8z"/>
	</g>
	<g>
		<circle class="st0" cx="-589.36" cy="390.86" r="14.04"/>
	</g>
	<g>
		<circle class="st0" cx="-561.98" cy="362.6" r="8.64"/>
	</g>
	<g>
		<circle class="st0" cx="-453.23" cy="390.86" r="14.04"/>
	</g>
	<g>
		<circle class="st0" cx="-462.96" cy="435.16" r="7.56"/>
	</g>
	<g>
		<circle class="st0" cx="-477" cy="372.5" r="8.64"/>
	</g>
	<g>
		<circle class="st0" cx="-526.72" cy="628.32" r="3.82"/>
	</g>
	<g>
		<circle class="st0" cx="-518.21" cy="635.97" r="2.87"/>
	</g>
	<g>
		<circle class="st0" cx="-535.42" cy="634.06" r="2.87"/>
	</g>
	<g>
		<circle class="st0" cx="-540.2" cy="615.41" r="5.26"/>
	</g>
	<g>
		<circle class="st0" cx="-514.87" cy="617.32" r="3.35"/>
	</g>
	<g>
		<circle class="st0" cx="-557.86" cy="396.4" r="5.23"/>
	</g>
	<g>
		<path class="st0" d="M-522.59,352.27c-1.44,0.64-2.57,1.86-3.19,3.31c-1.52-0.56-3.24-0.55-4.71,0.09c-1.69,0.73-3.06,2.22-3.52,4
			c-0.49,1.76-0.16,3.69,0.86,5.14c1.02,1.42,2.66,2.34,4.33,2.42c-0.96,1.3-1.28,3.08-0.88,4.72c0.43,1.66,1.61,3.13,3.19,3.92
			c0.78,0.4,1.67,0.62,2.55,0.64c0.45,0.01,0.87-0.02,1.34-0.11c0.37-0.07,0.86-0.22,1.26-0.38c1.46-0.61,2.65-1.81,3.29-3.27
			c1.47,0.33,3.01,0.17,4.35-0.53c1.5-0.78,2.67-2.18,3.09-3.8c0.44-1.61,0.2-3.37-0.64-4.75c-0.85-1.36-2.23-2.34-3.74-2.63
			c0.98-1.31,1.31-3.12,0.9-4.78c-0.44-1.68-1.66-3.16-3.26-3.93C-518.97,351.49-520.97,351.53-522.59,352.27z M-515.39,370.04
			c-0.59,0.17-1.21,0.18-1.79,0.05c-0.53-0.12-1.24-0.46-1.9-0.7l-0.74-0.27l-0.3,0.79l-0.41,1.06l-0.1,0.26l-0.1,0.23
			c-0.06,0.12-0.12,0.23-0.21,0.37c-0.32,0.5-0.78,0.9-1.29,1.18c-1.02,0.56-2.3,0.51-3.24-0.09c-0.97-0.56-1.58-1.66-1.55-2.76
			c0.01-0.55,0.14-1.09,0.42-1.58l1.16-1.93l0.91-1.51l-1.74-0.22c-0.77-0.1-1.59-0.17-2.34-0.25c-0.54-0.07-1.14-0.32-1.6-0.69
			c-0.94-0.74-1.48-2.05-1.22-3.31c0.23-1.26,1.23-2.4,2.55-2.76c0.65-0.19,1.37-0.2,2.04,0c0.17,0.05,0.33,0.11,0.5,0.18l0.53,0.24
			l1.08,0.49l0.46,0.21l0.11-0.45l0.39-1.61c0.03-0.11,0.07-0.26,0.11-0.38c0.04-0.12,0.08-0.23,0.13-0.35
			c0.1-0.24,0.23-0.46,0.37-0.68c0.59-0.86,1.54-1.46,2.59-1.66c1.04-0.21,2.17,0.04,3.06,0.65c0.89,0.6,1.54,1.57,1.76,2.63
			c0.16,0.83,0.06,1.71-0.28,2.47c-0.16,0.39-0.41,0.73-0.64,1.1l-0.69,1.08l-0.08,0.13l0.15,0.05c0.68,0.21,1.37,0.41,2.04,0.63
			c0.64,0.24,1.22,0.63,1.66,1.14c0.89,1.03,1.17,2.49,0.78,3.72C-513.19,368.74-514.21,369.72-515.39,370.04z M-511.2,364.79
			c0.01,0.04,0.03,0.08,0.04,0.12C-511.17,364.87-511.19,364.83-511.2,364.79z M-514.1,361.46c0.03,0.01,0.07,0.03,0.1,0.04
			C-514.03,361.48-514.07,361.47-514.1,361.46z M-512.98,362.18c-0.05-0.04-0.11-0.09-0.16-0.13
			C-513.09,362.09-513.04,362.14-512.98,362.18z"/>
	</g>
	<g>
		<g>
			<path class="st0" d="M-626.7,393.99c0.74-0.07,1.44-0.33,2.15-0.39c0.71-0.08,1.44-0.08,2.16-0.01c1.44,0.14,2.83,0.6,4.24,0.99
				c0.7,0.19,1.43,0.38,2.17,0.32c0.76-0.03,1.43-0.56,1.78-1.21l-0.07-0.03l0.07,0.03c0.46-0.87,0.29-1.91,0.05-2.8
				c-0.26-0.92-0.65-1.78-1.09-2.62c-0.89-1.67-1.99-3.22-3.18-4.69c-1.21-1.45-2.54-2.81-4-4.01c-0.7-0.55-1.48-1.03-2.34-1.3
				c-0.04-0.01-0.07-0.03-0.11-0.04c-0.01,0-0.03-0.01-0.04-0.02c-0.24-0.07-0.5-0.12-0.75-0.15c-0.01,0-0.02-0.01-0.03-0.01
				c-0.45-0.06-0.89-0.03-1.32,0.06c-0.02,0.01-0.04,0.01-0.06,0.01c-0.56,0.13-1.09,0.37-1.59,0.71c-0.02,0.01-0.04,0.02-0.06,0.04
				c-0.23,0.16-0.45,0.34-0.66,0.54c-0.6,0.53-1.13,1.16-1.59,1.82c-0.83,1.21-1.5,2.51-2.06,3.86c-0.53,1.37-0.7,2.9-0.36,4.35
				c0.34,1.44,1.21,2.76,2.46,3.59C-629.71,393.86-628.16,394.16-626.7,393.99z M-625.61,380.96c2.2-1.55,6.46,3.07,4.79,4.88
				C-623.2,388.41-627.81,382.51-625.61,380.96z M-616.15,392.84c-0.41-0.54-0.83-1.09-1.01-1.79c-0.03-0.17-0.05-0.39,0.09-0.57
				c0.14-0.19,0.38-0.21,0.56-0.18c0.37,0.05,0.67,0.22,0.97,0.39c0.33,0.2,0.64,0.44,0.93,0.68c0.08,0.19,0.15,0.38,0.21,0.58
				c-0.49-0.12-0.92-0.25-1.32-0.37c0.09,0.22,0.21,0.45,0.31,0.7c0.24,0.54,0.48,1.12,0.66,1.81c-0.05,0.04-0.11,0.08-0.16,0.11
				C-615.35,393.76-615.77,393.32-616.15,392.84z"/>
		</g>
	</g>
	<g>
		<g>
			<path class="st0" d="M-580.66,424.02c0.3-0.03,0.59-0.13,0.88-0.16c0.29-0.03,0.59-0.03,0.88,0c0.59,0.06,1.15,0.24,1.72,0.4
				c0.29,0.08,0.58,0.15,0.88,0.13c0.31-0.01,0.58-0.23,0.72-0.49l-0.03-0.01l0.03,0.01c0.19-0.36,0.12-0.78,0.02-1.14
				c-0.11-0.37-0.27-0.73-0.45-1.07c-0.36-0.68-0.81-1.31-1.3-1.91c-0.49-0.59-1.03-1.14-1.63-1.63c-0.29-0.22-0.6-0.42-0.95-0.53
				c-0.02-0.01-0.03-0.01-0.05-0.02c-0.01,0-0.01,0-0.02-0.01c-0.1-0.03-0.2-0.05-0.31-0.06c0,0-0.01,0-0.01,0
				c-0.19-0.02-0.36-0.01-0.54,0.03c-0.01,0-0.02,0-0.03,0.01c-0.23,0.05-0.44,0.15-0.65,0.29c-0.01,0-0.02,0.01-0.02,0.01
				c-0.09,0.06-0.18,0.14-0.27,0.22c-0.25,0.22-0.46,0.47-0.65,0.74c-0.34,0.49-0.61,1.02-0.84,1.57c-0.22,0.56-0.28,1.18-0.15,1.77
				c0.14,0.59,0.49,1.13,1,1.46C-581.88,423.97-581.25,424.09-580.66,424.02z M-580.21,418.71c0.9-0.63,2.63,1.25,1.95,1.99
				C-579.23,421.75-581.11,419.35-580.21,418.71z M-576.37,423.55c-0.17-0.22-0.34-0.44-0.41-0.73c-0.01-0.07-0.02-0.16,0.04-0.23
				c0.06-0.08,0.16-0.08,0.23-0.07c0.15,0.02,0.27,0.09,0.39,0.16c0.13,0.08,0.26,0.18,0.38,0.28c0.03,0.08,0.06,0.16,0.09,0.24
				c-0.2-0.05-0.38-0.1-0.54-0.15c0.04,0.09,0.09,0.18,0.13,0.29c0.1,0.22,0.2,0.46,0.27,0.74c-0.02,0.02-0.04,0.03-0.07,0.05
				C-576.04,423.93-576.21,423.75-576.37,423.55z"/>
		</g>
	</g>
	<g>
		<g>
			<path class="st0" d="M-474.36,421c0.74-0.07,1.44-0.33,2.15-0.39c0.71-0.08,1.44-0.08,2.16-0.01c1.44,0.14,2.83,0.6,4.24,0.99
				c0.7,0.19,1.43,0.38,2.17,0.32c0.76-0.03,1.43-0.56,1.78-1.21l-0.07-0.03l0.07,0.03c0.46-0.87,0.29-1.91,0.05-2.8
				c-0.26-0.92-0.65-1.78-1.09-2.62c-0.89-1.67-1.99-3.22-3.18-4.69c-1.21-1.45-2.54-2.81-4-4.01c-0.7-0.55-1.48-1.03-2.34-1.3
				c-0.04-0.01-0.07-0.03-0.11-0.04c-0.01,0-0.03-0.01-0.04-0.02c-0.24-0.07-0.5-0.12-0.75-0.15c-0.01,0-0.02-0.01-0.03-0.01
				c-0.45-0.06-0.89-0.03-1.32,0.06c-0.02,0.01-0.04,0.01-0.06,0.01c-0.56,0.13-1.09,0.37-1.59,0.71c-0.02,0.01-0.04,0.02-0.06,0.04
				c-0.23,0.16-0.45,0.34-0.66,0.54c-0.6,0.53-1.13,1.16-1.59,1.82c-0.83,1.21-1.5,2.51-2.06,3.86c-0.53,1.37-0.7,2.9-0.36,4.35
				c0.34,1.44,1.21,2.76,2.46,3.59C-477.37,420.87-475.83,421.17-474.36,421z M-473.27,407.96c2.2-1.55,6.46,3.07,4.79,4.88
				C-470.86,415.42-475.47,409.52-473.27,407.96z M-463.82,419.85c-0.41-0.54-0.83-1.09-1.01-1.79c-0.03-0.17-0.05-0.39,0.09-0.57
				c0.14-0.19,0.38-0.21,0.56-0.18c0.37,0.05,0.67,0.22,0.97,0.39c0.33,0.2,0.64,0.44,0.93,0.68c0.08,0.19,0.15,0.38,0.21,0.58
				c-0.49-0.12-0.92-0.25-1.32-0.37c0.09,0.22,0.21,0.45,0.31,0.7c0.24,0.54,0.48,1.12,0.66,1.81c-0.05,0.04-0.11,0.08-0.16,0.11
				C-463.02,420.77-463.44,420.33-463.82,419.85z"/>
		</g>
	</g>
	<g>
		<path class="st0" d="M-503.07,423.43l-0.03-0.01l0.05,0.02c0.13-0.39,0.15-0.92-0.2-1.23c-0.34-0.31-0.79-0.39-1.21-0.43
			c-0.85-0.07-1.7,0.04-2.54,0.18c-1.62,0.29-3.19,0.74-4.74,1.25c0.26-0.7,0.49-1.4,0.63-2.14c0.07-0.4,0.13-0.8,0.11-1.21
			c-0.02-0.39-0.11-0.87-0.5-1.11c-0.29-0.17-0.61-0.14-0.91-0.08c-0.06,0-0.13,0.02-0.21,0.04c-0.03,0.02-0.07,0.01-0.1,0.02
			c-0.02,0.01-0.03,0.02-0.06,0.02c-0.27,0.1-0.57,0.25-0.77,0.34c-0.02,0.01-0.07,0.04-0.09,0.05c-0.06,0.04-0.12,0.05-0.18,0.08
			c-0.05,0.03-0.08,0.06-0.13,0.09c-0.28,0.15-0.6,0.34-0.93,0.54c0.36-0.4,0.67-0.85,0.76-1.41c0.13-0.8-0.48-1.46-1.09-1.83
			c-0.59-0.38-1.24-0.62-1.9-0.84c1.72-2.03,3.34-4.17,4.51-6.58c0.28-0.62,0.54-1.26,0.67-1.93c0.12-0.66,0.12-1.44-0.38-1.98
			c-0.5-0.53-1.24-0.65-1.91-0.68c-0.65-0.01-1.3,0.06-1.93,0.18c0.37-1.42,0.6-2.86,0.6-4.32c0-0.75-0.08-1.49-0.3-2.21
			c-0.22-0.72-0.61-1.4-1.25-1.83l-0.03,0.05l0.01-0.07c-0.83-0.34-1.75-0.04-2.49,0.36c-0.23,0.13-0.45,0.29-0.67,0.44
			c-0.03,0.02-0.07,0.04-0.1,0.06c-0.45,0.32-0.89,0.66-1.29,1.03c-0.1,0.1-0.2,0.21-0.3,0.31c-0.41,0.4-0.81,0.81-1.16,1.22
			c-0.21,0.24-0.42,0.48-0.63,0.73c-0.4,0.49-0.72,0.9-0.94,1.2c-0.09,0.11-0.18,0.22-0.27,0.34c-0.43-0.22-0.89-0.4-1.38-0.43
			c-0.52-0.04-1.06,0.15-1.46,0.48c-0.81,0.68-1.19,1.68-1.49,2.63c-0.05,0.16-0.05,0.33-0.09,0.48c-0.15,0.6-0.27,1.21-0.35,1.82
			c-0.08,0.57-0.14,1.15-0.19,1.73c-0.03,0.43-0.05,0.82-0.06,1.13c-0.01,0.19-0.02,0.37-0.03,0.56c-0.24-0.25-0.48-0.5-0.79-0.68
			c-0.37-0.22-0.85-0.38-1.31-0.23c-0.46,0.14-0.77,0.54-0.94,0.95c-0.05,0.11-0.04,0.23-0.07,0.35c-0.03,0.11-0.05,0.24-0.08,0.36
			c-0.03,0.19-0.11,0.37-0.12,0.56c-0.05,1.03,0.12,2.04,0.4,3.02c-0.42-0.59-0.85-1.18-1.36-1.7c-0.59-0.59-1.28-1.18-2.16-1.31
			c-0.92-0.15-1.69,0.55-2.11,1.28c-0.04,0.07-0.06,0.14-0.1,0.21c-0.13,0.24-0.24,0.48-0.34,0.72c-0.07,0.17-0.13,0.35-0.19,0.53
			c-0.11,0.33-0.17,0.6-0.21,0.77c-0.76-0.93-1.58-1.8-2.52-2.56c-0.49-0.38-1.02-0.76-1.63-0.96c-0.3-0.1-0.64-0.15-0.95-0.07
			c-0.16,0.04-0.31,0.12-0.43,0.23c-0.13,0.1-0.25,0.22-0.36,0.38c-1.4,2.17,0.53,5.53,0.92,6.19c-0.46-0.22-0.94-0.41-1.45-0.43
			c-0.22-0.03-0.43,0.02-0.64,0.1c-0.01,0-0.01,0.01-0.02,0.01c-0.11,0.04-0.21,0.1-0.3,0.17c-0.07,0.05-0.14,0.1-0.2,0.17
			c-0.04,0.04-0.06,0.09-0.09,0.13c-0.19,0.26-0.33,0.61-0.36,1.16c-0.06,1.16,0.96,2.37,2.23,3.39c0.09,0.08,0.19,0.16,0.29,0.24
			c0.28,0.22,0.57,0.42,0.85,0.62c0.12,0.08,0.23,0.17,0.35,0.25c0.07,0.05,0.16,0.08,0.23,0.13c1.05,0.68,2.01,1.17,2.44,1.39
			c0.08,0.04,0.16,0.1,0.24,0.14c-0.03,0.02-0.05,0.05-0.08,0.07c-0.41,0.29-0.48,0.72-0.25,1.19l0,0c0.06,0.13,0.14,0.25,0.24,0.38
			c0.01,0.01,0.02,0.03,0.03,0.04c0.01,0.02,0.02,0.02,0.04,0.04c0.15,0.18,0.34,0.36,0.57,0.54c0.29,0.24,0.6,0.44,0.93,0.62
			c0.1,0.05,0.21,0.07,0.31,0.11c0.33,0.16,0.69,0.3,1.09,0.42c0.39,0.13,0.79,0.22,1.2,0.3c0.07,0.02,0.15,0.03,0.22,0.04
			c0.31,0.05,0.61,0.13,0.92,0.16c2.29,0.2,4.58-0.25,6.72-1.07c0.53,0.17,1.08,0.32,1.66,0.4c-0.11,0.61-0.21,1.22-0.3,1.83
			c-0.45,2.97-1.33,7.53-1.49,10.58l0.05-0.03c0,0.01,0,0.02,0,0.03h0.03l0.03,0.06l1.55-0.75l1.48-0.87l-0.03-0.06h0.03
			c-0.04-2.94,0.12-5.88,0.36-8.82c0.05-0.59,0.12-1.18,0.18-1.77c0.54,0.15,1.04,0.22,1.52,0.25c1,1.37,2.29,2.44,3.65,3.21
			c0.13,0.08,0.27,0.14,0.41,0.22c0.34,0.18,0.69,0.34,1.04,0.48c0.15,0.07,0.29,0.15,0.44,0.21c0.23,0.09,0.48,0.14,0.72,0.21
			c0.18,0.06,0.36,0.12,0.54,0.16c0.57,0.16,1.15,0.25,1.75,0.31c0.05,0,0.1,0.02,0.15,0.02c0.2,0.02,0.4,0.06,0.61,0.07
			c0.63-0.02,1.32-0.07,1.85-0.5c0.26-0.22,0.37-0.61,0.27-0.93c-0.07-0.28-0.24-0.52-0.41-0.75c0.93,0.13,1.88,0.21,2.82,0.22
			c0.98-0.01,1.98-0.06,2.91-0.45c0.45-0.19,0.88-0.57,0.98-1.07c0.14-0.51-0.09-1.05-0.46-1.37c-0.72-0.64-1.64-0.94-2.55-1.15
			c1.26-0.44,2.47-1.05,3.54-1.85C-504.44,425.85-503.48,424.76-503.07,423.43z M-503.13,423.41c-0.13,0.35-0.31,0.67-0.5,0.98
			c0.17-0.31,0.34-0.62,0.45-0.97c0.02-0.06,0.01-0.1,0.02-0.16c0,0.06,0.02,0.1,0.01,0.16L-503.13,423.41z M-528.43,422.85
			c0.01,0.01,0.02,0.03,0.03,0.04c-0.01,0.03-0.01,0.06-0.03,0.09L-528.43,422.85z M-525.95,439.02c0.02,0.3,0.02,0.6,0.04,0.9
			c-0.02-0.01-0.03-0.01-0.06-0.02C-525.96,439.61-525.95,439.31-525.95,439.02z M-517.13,396.5
			C-517.13,396.5-517.13,396.49-517.13,396.5l-0.01-0.01C-517.13,396.49-517.13,396.5-517.13,396.5z M-528.02,427.76
			c-0.08-1.59-0.16-3.18-0.29-4.76c0.03,0.04,0.07,0.07,0.1,0.11c0.32,0.38,0.66,0.74,0.99,1.11c0.26,0.29,0.49,0.57,0.77,0.87
			l0.01,0c-0.23,1.04-0.41,2.07-0.59,3.11l0.01-0.23C-527.33,427.94-527.68,427.83-528.02,427.76z M-525.22,428.56
			c0.11-1.08,0.24-2.16,0.38-3.24c1.45-0.55,2.88-1.16,4.29-1.82l-0.81,1.28l0,0l-2.48,3.7c-0.46-0.07-0.89-0.15-1.22-0.29
			L-525.22,428.56z"/>
	</g>
</g>
<g>
	<g>
		<g>
			<path class="st0" d="M299.34,527.27c-1.95,12.81-3.57,21.36-4.88,25.66c-3.03,4.27-6.79,7.23-11.28,8.88
				c-1.96,0.82-3.39,1.28-4.26,1.38c-5.32,0.57-9.38-2.37-12.19-8.84c-1.57-4.27-2.42-6.76-2.55-7.46
				c-1.28-6.69,0.34-18.92,4.86-36.69c4.51-17.77,7.96-30.28,10.34-37.53c2.38-7.25,7.07-16.94,14.08-29.07
				c3.94-4.59,6.63-6.96,8.05-7.11c2.63,0.21,4.09,1.14,4.38,2.77l1.06,5.21c1.76,9.08,1.91,16.16,0.47,21.26
				c-0.18,0.35-0.62,2.7-1.32,7.05l-1.5,11.56c7.38-8.73,14.21-15.55,20.51-20.44c4.93-3.64,12-7.84,21.19-12.61
				c4.18-1.39,6.73-1.92,7.65-1.58c1.39,1.02,1.81,2.08,1.26,3.19l-1.63,3.42c-2.85,5.97-10.78,14.95-23.8,26.96
				c-0.26,0.14-1.52,1.36-3.77,3.65l-13.3,17.08c-0.3,0.31-0.57,0.64-0.81,1c4.66,3.6,10.08,7.82,16.26,12.64
				c23.97,19.55,42.94,32.84,56.91,39.87l2.71,3.54c0.84,1.13,0.65,2.4-0.59,3.81c-0.87,0.65-3.82,0.61-8.83-0.13
				c-12.55-1.64-23.42-4.63-32.59-8.96c-9.18-4.33-21.76-11.66-37.75-21.97C304.9,531.49,302,529.31,299.34,527.27z"/>
		</g>
		<g>
			<path class="st0" d="M372.43,544.42c-3.4-0.63-5.2-2.13-5.4-4.49l-0.2-2.64c-0.31-3.35-0.11-13.55,0.6-30.61
				c0.11-4.06-0.23-10.57-1.03-19.53l-0.48-5.94c-1.11-2.6-1.7-4.2-1.77-4.8l-0.07-0.66c-0.04-0.33,0.97-1.52,3.03-3.57
				c6.03,0.85,10.19,2.92,12.49,6.22c6.35,4.36,9.93,11.02,10.73,19.98c3.79-6.51,8.86-13.27,15.2-20.29
				c4.4-5.52,11.2-10.09,20.41-13.69c-0.06-0.6,1.64-1.2,5.13-1.8c3.93-0.04,8.65,2.01,14.14,6.13c1.59,2.88,2.56,6.44,2.9,10.67
				c0.42,4.95-1.54,15.54-5.89,31.76l0.34,3.96c0.21,2.47,2.96,4.79,8.24,6.93l1.13,1.21l0.07,0.66c0.16,1.98-2.24,3.63-7.21,4.94
				c-1.13,0.34-2.44,0.57-3.92,0.67c-7.37,0.63-12.41-1.38-15.13-6.02c-3.06-4.66-4.65-7.62-4.79-8.89
				c-0.85-9.9-0.16-18.38,2.08-25.44l-0.33,0.04c-1.59,0.17-10.96,8.2-28.11,24.1c-5.64,6.82-9.87,14.16-12.68,22.01
				c-3.14,5.33-5.23,8.06-6.27,8.17C375.31,543.8,374.23,544.11,372.43,544.42z"/>
		</g>
		<g>
			<path class="st0" d="M496.77,459.73c14.62-1.8,22.85-0.69,24.7,3.32c1.85,4.02,2.33,8.43,1.43,13.24
				c-0.89,4.81-3.99,10.39-9.3,16.74c-5.31,6.34-16.33,11.86-33.08,16.56c1.07,7.87,7.97,9.18,20.69,3.92
				c12.72-5.26,21.13-8.55,25.23-9.89c4.1-1.33,5.98-0.24,5.64,3.26c-0.34,3.51-6.53,9.22-18.58,17.16
				c-12.04,7.93-25.62,10.93-40.73,8.98c-15.11-1.95-21.57-12.54-19.37-31.78C455.6,482.01,470.05,468.17,496.77,459.73z
				 M478.01,496.3l1.36,2.6c20.81-10.24,29.81-17.66,27.01-22.27c-2.8-4.61-7.78-4.71-14.93-0.3
				C484.3,480.73,479.82,487.39,478.01,496.3z"/>
		</g>
		<g>
			<path class="st0" d="M611.64,446.73c3.51,1.67,5.3,3.87,5.37,6.58l-0.01,0.67c-0.01,1.5-2.05,9.77-6.14,24.8l-0.01,3
				c0.66,4.09,3.66,6.18,9,6.27c7.96,0.75,12.05,1.92,12.28,3.5c0.22,0.03,0.34,0.38,0.36,1.04c0.01,5.21-8.13,9.23-24.42,12.04
				c-9.95-1.7-15.7-4.07-17.25-7.12c-18.52,12.93-32.5,19.41-41.93,19.43l-3.33,0.03c-7.37,0.08-12.34-3.85-14.92-11.79
				c-0.48-1.89-0.71-3.53-0.7-4.92c-0.14-13.63,11.11-27.83,33.76-42.6c12.34-6.49,24.33-9.79,35.97-9.88
				c4.02,0.73,6,1.15,5.96,1.27C608.14,447.5,610.14,446.73,611.64,446.73z M557.02,492.75l2.33,0c7.21-0.06,16.33-3.65,27.38-10.78
				l-0.02-1c0.35-1.92,2.28-7.35,5.81-16.28c-7.52,1.26-14.88,4.52-22.08,9.79c-3.96,2.43-6.92,5.52-8.9,9.28
				C560.1,484.76,558.59,487.75,557.02,492.75z"/>
		</g>
		<g>
			<path class="st0" d="M723.92,384.49c3.51,1.67,5.3,3.87,5.37,6.58l-0.01,0.67c-0.01,1.5-4.89,27.11-14.67,76.82l-0.01,3
				c0.66,4.09,3.66,6.18,9,6.27c7.96,0.75,12.05,1.92,12.28,3.5c0.22,0.03,0.34,0.38,0.36,1.04c0.01,5.21-8.13,9.23-24.42,12.04
				c-9.95-1.7-15.7-4.07-17.25-7.12c-18.52,12.93-32.5,19.41-41.93,19.43l-3.33,0.03c-7.37,0.08-12.35-3.85-14.92-11.79
				c-0.48-1.89-0.71-3.53-0.7-4.92c-0.14-13.63,11.11-27.83,33.76-42.6c12.33-6.49,22.35-9.57,30.04-9.24
				c1.16-0.57,2.17-0.98,3.03-1.24C701.97,404.45,709.76,386.96,723.92,384.49z M661.58,481.45l2.33,0
				c7.21-0.06,16.33-3.65,27.38-10.78l-0.03-1c0.35-1.92,2.29-7.35,5.81-16.28c-7.52,1.26-14.88,4.52-22.08,9.79
				c-3.95,2.42-6.92,5.52-8.9,9.28C664.65,473.46,663.15,476.45,661.58,481.45z"/>
		</g>
	</g>
	<g>
		<g>
			<path class="st0" d="M524.1,522.75c6.32-0.93,9.56-1.11,9.72-0.56c2.63,0.19,5.67,1.24,9.12,3.15c2.43,1.62,4.4,3.83,5.9,6.63
				c0.7,1.49,1.06,2.32,1.1,2.48c1.29,4.56,0.71,9.61-1.72,15.14c-2.72,4.54-6.79,8.61-12.19,12.22c-3.58,1.83-6.46,2.99-8.64,3.49
				l-1.3,0.3c-0.81,0.19-1.6,0-2.38-0.55l-0.2-0.66c0.58-1.31,1.47-2.11,2.67-2.38c5.23-2.85,9.51-6.83,12.84-11.92
				c1.26-3.71,1.71-6.25,1.33-7.64c0.01-0.33-0.08-0.8-0.29-1.44l-0.18-0.8c-0.41-1.38-1.69-2.82-3.86-4.32
				c-2.28-1.33-4.41-1.94-6.39-1.84c-2.48-0.16-4.98,0.04-7.49,0.62l-0.25,0.06l0.03,0.13l0.53,0.41l0.48,1.7
				c0.57,2.1,0.61,5.22,0.12,9.33c0.11,6.36-0.63,15.82-2.24,28.38c-0.77,6.86-1.63,13.73-2.58,20.6c0.19,0.69-0.29,2.77-1.43,6.25
				l-2.01,2.41l-1.05,0.24c-1.09,0.25-2.21-0.79-3.37-3.11l-1.49-5.31c-0.88-14.54-0.74-24.95,0.44-31.23
				c0.9-7.86,2.03-13.6,3.41-17.21c1.39-4.71,2.53-8.24,3.43-10.59l-0.13,0.03c-1.88,1.17-3.67,2.1-5.36,2.78
				c-1.65,0.38-2.76-0.42-3.34-2.41c-1.16-4.15,2.81-8.37,11.91-12.68L524.1,522.75z"/>
		</g>
		<g>
			<path class="st0" d="M560.02,544.27l0.25-0.06c0.98-0.23,1.83,0.67,2.56,2.68c0.38,0.88,0.63,1.56,0.74,2.04
				c0.98,4.25,0.09,11.36-2.68,21.32l-0.99,5.84c0.21,0.54,0.36,0.98,0.44,1.31l0.03,0.13c0.23,1.01-0.48,1.7-2.13,2.08
				c-2.43,0.56-4.57-1.7-6.42-6.78c-0.9-3.88-0.04-9.44,2.56-16.66c3-6.37,4.54-10.13,4.6-11.26
				C559.22,544.59,559.57,544.38,560.02,544.27z M565.55,519.07l1.26-0.29c0.57,0.16,0.9,0.48,1.01,0.96l0.03,0.13
				c0.18,1.17-1.73,6.18-5.71,15.05c-0.93,1.95-1.82,3.02-2.66,3.22c0.04,0.17-0.56,0.39-1.79,0.68c-1.89,0.11-2.98-0.46-3.27-1.72
				l-0.46-2.01c-0.36-1.56,0.56-4.4,2.76-8.5c2.26-2.46,4.64-4.57,7.15-6.33C564.45,520.06,565.01,519.66,565.55,519.07z"/>
		</g>
		<g>
			<path class="st0" d="M592.1,526.77c5.73-0.7,8.97,0.61,9.74,3.94c0.5,2.15-3.28,9.5-11.34,22.04c-1.44,1.78-3.32,4.62-5.63,8.54
				l0.34-0.08c2.26-0.52,7.21-1.02,14.85-1.48c1.7-0.27,2.94-0.5,3.73-0.68c3.34-1.24,5.41-1.95,6.22-2.14
				c0.59-0.14,1.17,0.08,1.74,0.66l0.04,0.17c0.6,2.6-2.58,5.92-9.53,9.97c-3.64,1.43-6.82,2.46-9.53,3.08
				c-7.96,1.6-13.13,2.67-15.51,3.22l-0.5,0.12c-2.43,0.56-5.36,1.65-8.78,3.26c-1.06,0.24-2.07-0.29-3.02-1.6
				c-1.08-4.7,1.66-10.68,8.22-17.97l14.28-18.48l-0.17,0.04c-9.18,3.06-14.61,4.78-16.29,5.17c-5.48,1.26-8.72-0.29-9.72-4.65
				l-0.15-0.67c-0.33-1.43,0.75-2.62,3.24-3.57c1.73-0.02,2.62,0.01,2.67,0.09c0.2-0.16,0.35-0.26,0.46-0.28
				c1.06-0.24,8.61-2.99,22.65-8.22L592.1,526.77z"/>
		</g>
		<g>
			<path class="st0" d="M637.04,516.4c5.73-0.7,8.97,0.61,9.74,3.94c0.5,2.15-3.28,9.5-11.34,22.04c-1.44,1.78-3.32,4.62-5.63,8.54
				l0.33-0.08c2.26-0.52,7.21-1.02,14.85-1.48c1.7-0.27,2.94-0.5,3.73-0.68c3.33-1.24,5.41-1.95,6.22-2.14
				c0.59-0.14,1.17,0.08,1.74,0.66l0.04,0.17c0.6,2.6-2.58,5.92-9.53,9.97c-3.64,1.43-6.82,2.46-9.53,3.08
				c-7.96,1.6-13.13,2.67-15.5,3.22l-0.5,0.12c-2.43,0.56-5.36,1.65-8.78,3.26c-1.06,0.24-2.07-0.29-3.02-1.6
				c-1.08-4.7,1.66-10.68,8.22-17.97l14.28-18.48l-0.17,0.04c-9.18,3.06-14.62,4.78-16.29,5.17c-5.48,1.26-8.72-0.29-9.73-4.65
				l-0.15-0.67c-0.33-1.43,0.75-2.62,3.24-3.57c1.73-0.02,2.62,0.01,2.67,0.09c0.2-0.16,0.35-0.26,0.46-0.28
				c1.06-0.24,8.61-2.99,22.65-8.22L637.04,516.4z"/>
		</g>
		<g>
			<path class="st0" d="M694.02,506.58c1.92,0.65,2.98,1.67,3.18,3.06l0.04,0.35c0.09,0.77-0.46,5.17-1.64,13.18l0.18,1.55
				c0.59,2.07,2.27,2.96,5.03,2.68c4.16-0.1,6.34,0.25,6.56,1.05c0.12,0,0.2,0.17,0.25,0.52c0.33,2.69-3.63,5.27-11.86,7.72
				c-5.24-0.26-8.36-1.13-9.34-2.61c-8.76,7.82-15.58,12.02-20.45,12.62l-1.72,0.22c-3.8,0.49-6.61-1.23-8.43-5.17
				c-0.37-0.95-0.59-1.78-0.66-2.5c-0.92-7.03,4.02-15.05,14.8-24.08c5.97-4.11,11.96-6.55,17.96-7.32
				c2.12,0.13,3.17,0.23,3.16,0.29C692.27,507.19,693.25,506.67,694.02,506.58z M668.66,533.7l1.2-0.15
				c3.72-0.47,8.21-2.89,13.47-7.26l-0.07-0.51c0.06-1.01,0.73-3.93,2-8.76c-3.8,1.11-7.4,3.25-10.79,6.42
				c-1.89,1.5-3.23,3.28-4.02,5.34C669.76,529.39,669.17,531.03,668.66,533.7z"/>
		</g>
	</g>
	<g>
		<path class="st0" d="M336.06,448.35l-0.69-0.22c10.89-34.03,31.9-63.33,60.75-84.73c29.43-21.83,64.4-33.36,101.14-33.36
			c72.29,0,136.81,45.84,160.54,114.06l-0.68,0.24c-23.63-67.93-87.87-113.58-159.85-113.58
			C423.36,330.76,358.57,378.01,336.06,448.35z"/>
	</g>
	<g>
		<path class="st0" d="M497.26,669.95c-71.86,0-136.25-45.48-160.23-113.18l-0.03-0.09c-0.03-0.09-0.06-0.18-0.08-0.26l0.71-0.16
			c0.01,0.06,0.03,0.12,0.06,0.17l0.03,0.1c23.87,67.4,87.99,112.69,159.55,112.69c72.14,0,136.43-45.78,159.98-113.9l0.68,0.24
			C634.27,623.98,569.71,669.95,497.26,669.95z"/>
	</g>
	<g>
		<path class="st0" d="M657.46,444.22"/>
	</g>
	<g>
		<path class="st0" d="M321.58,446.25c-0.26,0-0.52-0.04-0.77-0.12c-1.33-0.43-2.07-1.85-1.64-3.18
			c11.98-37.44,35.09-69.68,66.83-93.22c32.37-24.01,70.85-36.7,111.27-36.7c79.65,0,150.65,50.53,176.69,125.73
			c0.46,1.32-0.24,2.76-1.56,3.22c-1.33,0.46-2.76-0.24-3.22-1.56c-25.33-73.16-94.42-122.32-171.91-122.32
			c-79.45,0-149.08,50.79-173.28,126.4C323.64,445.56,322.65,446.25,321.58,446.25z"/>
	</g>
	<g>
		<path class="st0" d="M337.27,556.35"/>
	</g>
	<g>
		<path class="st0" d="M497.26,686.97c-39.42,0-77.12-12.12-109.02-35.05c-31.22-22.45-54.48-53.38-67.26-89.46
			c-0.44-1.24-0.9-2.58-1.4-4.11c-0.44-1.33,0.29-2.76,1.62-3.19c1.33-0.44,2.76,0.29,3.19,1.62c0.49,1.48,0.93,2.79,1.36,3.99
			c25.67,72.46,94.59,121.15,171.5,121.15c77.54,0,146.64-49.21,171.95-122.44c0.46-1.32,1.9-2.02,3.22-1.57
			c1.32,0.46,2.02,1.9,1.57,3.22C647.98,636.4,576.96,686.97,497.26,686.97z"/>
	</g>
	<g>
		<path class="st0" d="M657.54,444.45c-22.99-66.38-86.08-114.05-160.28-114.05c-75.61,0-139.67,49.49-161.55,117.84
			c3.12,1.48,13.95-9.62,13.95-9.62c0.56-8.34,5.98-12.14,13.21-16.58c7.23-4.45,7.78-12.78,11.12-17.22
			c3.34-4.45,11.12-12.23,16.11-15.57c5-3.34,10.56-7.78,13.9-12.78c3.34-5,10.56-3.89,13.9-4.45s2.22-5.56,6.66-6.12
			c4.45-0.56,9.45-3.34,10.56-5s6.12,0,6.12,0l6.12,3.89l7.22,17.19c-0.15-1.09-3.8-27.19,0.01-26.64c3.88,0.56,10,2.21,16.67-0.01
			c6.67-2.21,10.01-7.77,16.12-9.44c6.1-1.66,11.49-2.77,19.63,2.78c8.15,5.56,17.61,1.67,24.27,1.67c6.67,0,12.23-0.56,15.57,3.89
			c3.34,4.45,17.22,11.68,25.56,15.57c8.34,3.89,16.12,3.34,16.68,5.56c0.55,2.19-14,32.4-14.44,33.33
			c0.68-0.84,19.58-24.39,26.66-21.66c7.23,2.78,14.46,16.68,19.46,19.46c5,2.78,6.12,7.78,6.12,12.78c0,5,4.45,8.9,7.22,11.12
			c2.78,2.22,4.45,3.89,4.45,8.34C638.54,438.71,652.25,447.11,657.54,444.45z"/>
	</g>
	<g>
		<path class="st0" d="M657.58,555.45c-22.97,66.43-86.08,114.15-160.33,114.15c-73.8,0-136.58-47.14-159.89-112.94
			c0,0,6.91,1.24,7.22,3.68c0.31,2.44,3.43,8.06,3.43,8.06s2.81,1.25,5.93,3.43c3.12,2.19,7.49,9.06,7.49,9.99
			c0,0.94,4.09-1.04,4.09-1.04c7.22,4.45,7.77,12.79,11.11,17.24c3.34,4.45,11.12,12.23,16.12,15.57c5,3.32,10.56,7.77,13.9,12.78
			c3.32,5,10.55,3.89,13.89,4.45c3.34,0.56,2.22,5.56,6.67,6.12c4.45,0.56,9.45,3.34,10.56,5c1.11,1.67,6.1,0,6.1,0l6.12-3.89
			l4.23-10.09l2.99-7.11c-0.05,0.4-0.59,4.22-1.05,8.84c-0.78,7.89-1.35,18.16,1.06,17.81c3.89-0.56,10.01-2.21,16.68,0
			c6.66,2.22,10,7.77,16.11,9.44s11.49,2.78,19.64-2.78c8.14-5.55,17.59-1.67,24.27-1.67s12.23,0.56,15.56-3.88
			c3.34-4.45,17.24-11.68,25.57-15.57c8.34-3.89,16.11-3.34,16.67-5.56c0.39-1.59-7.14-17.9-11.48-27.11
			c-1.65-3.49-2.83-5.96-2.95-6.21c0.2,0.24,1.8,2.23,4.18,4.95c6.13,6.99,17.38,18.67,22.49,16.7
			c7.23-2.77,14.46-16.67,19.45-19.45c5-2.78,6.12-7.78,6.12-12.79c0-4.99,4.45-8.88,7.23-11.11c2.78-2.22,4.45-3.89,4.45-8.34
			c0,0,3.3-1.47,6.82-2.19c3.52-0.72,4.14,0.96,4.77-1.6c0.62-2.55,2.25-3.99,2.25-3.99L657.58,555.45z"/>
	</g>
	<g>
		<path class="st0" d="M470.96,405.28c-0.26,0.44-0.89,0.46-1.16,0.03c-1.93-3.05-7.15-13.32,3.31-22.64
			c12.44-11.1,20.51-6.39,26.23-12.94c0,0,11.74,38.32-18.42,44.3c-0.69,0.14-1.3-0.48-1.16-1.17c0.7-3.62,2.94-13.39,7.8-20.85
			C487.55,392,479.82,390.47,470.96,405.28z"/>
	</g>
	<g>
		<path class="st0" d="M460.34,598.39c-0.27-0.43-0.01-1,0.5-1.05c3.59-0.33,15.11-0.27,18.63,13.29
			c4.19,16.14-3.69,21.16-0.47,29.24c0,0-39.45-7.06-30.99-36.63c0.19-0.68,1.02-0.93,1.57-0.5c2.9,2.28,10.57,8.73,14.99,16.46
			C464.57,619.21,469.47,613.03,460.34,598.39z"/>
	</g>
	<g>
		<circle class="st0" cx="432.07" cy="394.59" r="11.03"/>
	</g>
	<g>
		<circle class="st0" cx="524.26" cy="377.95" r="8.23"/>
	</g>
	<g>
		<circle class="st0" cx="513.73" cy="433.07" r="6.12"/>
	</g>
	<g>
		<circle class="st0" cx="576.49" cy="595.56" r="6.12"/>
	</g>
	<g>
		<circle class="st0" cx="541.78" cy="622.72" r="6.12"/>
	</g>
	<g>
		<circle class="st0" cx="409.72" cy="599.4" r="8.81"/>
	</g>
	<g>
		<circle class="st0" cx="548.79" cy="391.88" r="13.13"/>
	</g>
	<g>
		<path class="st0" d="M421.86,441.9l6.64,4.67c0.4,0.28,0.95,0.22,1.27-0.15l5.41-6.11c0.34-0.39,0.32-0.98-0.06-1.33l-6.28-5.97
			c-0.31-0.29-0.43-0.72-0.32-1.13c0.23-0.91,0.96-2.57,3.23-4.34c0.56-0.44,0.43-1.33-0.22-1.62c-3.83-1.72-14.11-5.35-19.57,2
			c-5.52,7.41,0.56,15.39,3.07,18.15c0.44,0.49,1.22,0.41,1.55-0.17c0.6-1.07,1.72-2.68,3.53-3.97
			C420.63,441.55,421.33,441.53,421.86,441.9z"/>
	</g>
	<g>
		<path class="st0" d="M507.53,623.45l-2.79,7.62c-0.17,0.46,0.04,0.97,0.47,1.19l7.3,3.65c0.46,0.23,1.03,0.05,1.27-0.4l4.14-7.61
			c0.2-0.37,0.59-0.6,1.01-0.61c0.94-0.01,2.73,0.26,5.03,2c0.57,0.43,1.4,0.07,1.51-0.63c0.66-4.15,1.51-15.01-7-18.39
			c-8.59-3.41-14.72,4.52-16.73,7.66c-0.36,0.55-0.08,1.29,0.56,1.45c1.19,0.3,3.03,0.97,4.75,2.38
			C507.55,622.17,507.75,622.84,507.53,623.45z"/>
	</g>
	<g>
		<path class="st0" d="M449.2,572.63l2.43-7.75c0.15-0.47-0.08-0.97-0.53-1.17l-7.47-3.29c-0.47-0.21-1.03-0.01-1.25,0.46l-3.77,7.8
			c-0.18,0.38-0.56,0.63-0.98,0.65c-0.94,0.05-2.74-0.13-5.12-1.75c-0.59-0.4-1.4-0.01-1.48,0.7c-0.47,4.17-0.79,15.06,7.87,18.03
			c8.74,3,14.49-5.22,16.35-8.45c0.33-0.57,0.02-1.29-0.63-1.42c-1.2-0.25-3.07-0.82-4.86-2.15
			C449.24,573.91,449.01,573.25,449.2,572.63z"/>
	</g>
	<g>
		<path class="st0" d="M594.52,415.88l-7.62,2.81c-0.46,0.17-0.72,0.66-0.6,1.13l1.95,7.93c0.12,0.5,0.62,0.82,1.13,0.71l8.48-1.77
			c0.41-0.09,0.84,0.06,1.12,0.38c0.62,0.71,1.57,2.26,1.74,5.13c0.04,0.72,0.85,1.11,1.46,0.74c3.59-2.18,12.41-8.57,9.47-17.25
			c-2.97-8.75-12.98-8.28-16.67-7.79c-0.65,0.09-1.03,0.78-0.74,1.37c0.54,1.1,1.23,2.94,1.27,5.16
			C595.51,415.07,595.13,415.66,594.52,415.88z"/>
	</g>
</g>
</svg>
